<svg xmlns="http://www.w3.org/2000/svg" viewBox="0 0 512 512"><path d="M117.5 385.18h277v117.36h-277zM412.35 9.46h-4.85v493.08h4.85c32.31 0 58.32-26.01 58.32-58.32V67.78c0-32.31-26.01-58.32-58.32-58.32m26.75 471.86c-7.52 6.41-15.71 8.12-15.71 8.12v-28.16h26.21l.08 7.04s-4.18 7.54-10.58 13m10.16-353.84v40.25h-25.22v-40.25zm-25.22-15.39V71.84h25.22v40.25zm25.22 71.03v40.25h-25.22v-40.25zm0 55.64v40.25h-25.22v-40.25zm0 55.64v40.25h-25.22V294.4zm0 55.64v40.25h-25.22v-40.25zm0 55.63v40.25h-25.22v-40.25zm.36-349.64h-26.21V27.87s8.19 1.72 15.71 8.12c6.41 5.46 10.58 13 10.58 13zM104.5 9.46h-4.85c-32.31 0-58.32 26.01-58.32 58.32v376.44c0 32.31 26.01 58.32 58.32 58.32h4.85zM72.88 35.99c7.52-6.41 15.71-8.12 15.71-8.12v28.16H62.38l-.08-7.04s4.18-7.54 10.58-13m-10.14 354.3v-40.25h25.22v40.25zm25.22 15.38v40.25H62.74v-40.25zm-25.22-71.02V294.4h25.22v40.25zm0-55.64v-40.25h25.22v40.25zm0-55.64v-40.25h25.22v40.25zm0-55.64v-40.25h25.22v40.25zm0-55.64V71.84h25.22v40.25zm17.14 373.95q-.66-.36-1.35-.75a38.4 38.4 0 0 1-5.63-3.97c-4-3.41-7.14-7.63-8.92-10.32a44 44 0 0 1-1.66-2.67l.08-7.04h26.21v28.16s-3.87-.81-8.73-3.4ZM117.5 9.46h277v117.36h-277zm0 129.36v234.36h277V138.82zm82.77 88.36 27.07-.1v-54.1c0-5.52 4.48-10 10-10h37.63c5.52 0 10 4.48 10 10v53.89l26.72-.09c1.98 0 3.88.76 5.3 2.15 2.98 2.91 3.04 7.69.13 10.67l-43.92 44.99-.24.24c-9.26 9.21-24.23 9.17-33.44-.08l-44.54-44.76c-1.4-1.4-2.18-3.3-2.19-5.28-.01-4.15 3.34-7.53 7.49-7.54Zm134.82 106.41H177a6.5 6.5 0 1 1 0-13h158.09a6.5 6.5 0 1 1 0 13"/></svg>
