<svg xmlns="http://www.w3.org/2000/svg" id="svg1" viewBox="0 0 512 512"><defs><style>.st0{fill:#ffffff}</style></defs><g id="g243"><path id="path239" d="M492.59 511.32H19.41c-10.74 0-19.46-8.71-19.46-19.46s8.71-19.46 19.46-19.46h473.18c10.74 0 19.46 8.71 19.46 19.46s-8.71 19.46-19.46 19.46" class="st0"/><path d="M438.38 198.06a22.57 22.57 0 0 0-15.85-6.42l-79.97.28V30.62c0-16.53-13.4-29.93-29.93-29.93H200c-16.53 0-29.93 13.4-29.93 29.93v161.92l-81.02.29c-12.43.04-22.46 10.15-22.42 22.58.02 5.92 2.37 11.59 6.55 15.79l133.31 133.97c27.57 27.71 72.38 27.82 100.09.25.24-.24.48-.48.72-.73l131.47-134.68c8.71-8.92 8.54-23.22-.38-31.93Z" class="st0"/></g></svg>
